<svg xmlns="http://www.w3.org/2000/svg" width="1920" height="980" viewBox="0 0 1920 980"><defs><linearGradient id="g" x1="0" x2="1" y1="0" y2="1"><stop offset="0%" stop-color="#1fc9d6"/><stop offset="60%" stop-color="#1c7fd7"/><stop offset="100%" stop-color="#f4b24d"/></linearGradient></defs><rect width="1920" height="980" fill="url(#g)"/><circle cx="1550" cy="180" r="120" fill="rgba(255,255,255,.15)"/><circle cx="1710" cy="280" r="48" fill="rgba(255,255,255,.15)"/><path d="M0 780 C220 700 420 860 700 780 C980 700 1200 910 1470 820 C1670 755 1800 800 1920 760 L1920 980 L0 980 Z" fill="rgba(255,255,255,.14)"/><path d="M0 845 C250 770 440 920 710 860 C990 800 1220 945 1480 890 C1660 855 1790 875 1920 850 L1920 980 L0 980 Z" fill="rgba(255,255,255,.22)"/><text x="110" y="290" font-family="Arial, Helvetica, sans-serif" font-size="96" font-weight="700" fill="white">Tu próxima escapada te está esperando</text><text x="110" y="385" font-family="Arial, Helvetica, sans-serif" font-size="42" fill="white">Promociones, playas, ciudades y pueblos mágicos para disfrutar México</text></svg>